<svg width="123" height="30" viewBox="0 0 123 30" fill="none" xmlns="http://www.w3.org/2000/svg">
<path d="M4.7613 26.3827C4.7613 27.0971 4.7613 27.6278 4.82253 28.0565C4.945 28.5667 5.23075 28.8117 5.53692 28.975C5.78185 29.0974 6.04719 29.1382 6.29213 29.1586V29.4036H0.148407V29.1586C0.393339 29.1382 0.699505 29.077 0.862793 28.975C1.20978 28.8117 1.47512 28.5667 1.55677 28.1585C1.67923 27.6686 1.67923 27.1584 1.67923 26.3827V13.6871C1.67923 13.2788 1.67923 12.3399 1.618 11.9725C1.49553 11.5847 1.37307 11.3398 1.14855 11.1765C0.883204 10.9928 0.658681 10.952 0.23005 10.9316V10.707H4.61842C4.74089 10.707 4.80212 10.7274 4.80212 10.9316C4.80212 11.4827 4.78171 12.1358 4.78171 13.1564V26.3827H4.7613ZM8.63939 13.3809C8.63939 12.3807 9.35378 11.6051 10.4152 11.6051C11.4765 11.6051 12.1909 12.4012 12.1909 13.3809C12.1909 14.3606 11.4765 15.1566 10.4152 15.1566C9.35378 15.1566 8.63939 14.3606 8.63939 13.3809ZM12.0072 26.4848C12.0072 27.1584 12.0276 27.6686 12.1297 28.036C12.2521 28.5871 12.4971 28.7913 12.8441 28.9545C13.0278 29.077 13.3135 29.1178 13.5789 29.1382V29.3832H7.43514V29.1382C7.68008 29.1178 7.98624 29.0566 8.16994 28.9545C8.49652 28.7913 8.76186 28.5259 8.8435 28.1585C8.96597 27.7299 8.96597 27.1992 8.96597 26.444V20.0961C8.96597 19.6675 8.96597 18.6878 8.90474 18.3612C8.82309 17.9938 8.65981 17.7284 8.41487 17.606C8.19035 17.4427 7.94542 17.361 7.45555 17.361V17.1161H11.8643C11.9868 17.1161 12.048 17.1365 12.048 17.2998C12.0276 17.8713 11.9868 18.4837 11.9868 19.5246L12.0072 26.4848ZM25.4173 17.5652C25.1723 17.7284 24.9478 17.8917 24.8049 18.2387C24.5804 18.5653 24.2538 19.2797 23.9477 20.2186L20.6411 29.4852H19.1715L16.1098 20.8105C15.7833 19.9328 15.4567 19.0348 15.3138 18.6674C15.0689 18.1163 14.8852 17.8101 14.579 17.606C14.3137 17.4223 14.0075 17.361 13.7217 17.2998V17.0753H20.1716V17.2998C19.8042 17.3202 19.4368 17.4223 19.1919 17.5243C18.9674 17.6468 18.8449 17.9938 18.8449 18.3408C18.8449 18.7694 19.0082 19.3205 19.3144 20.2594L21.2126 26.2807H21.2738L23.3557 20.3615C23.7027 19.3817 23.8252 18.8306 23.8252 18.4224C23.8252 17.9121 23.6007 17.6672 23.3557 17.5039C23.1108 17.3815 22.8455 17.3202 22.5597 17.2794V17.0549H26.1316V17.2794C25.9071 17.361 25.6418 17.4223 25.4173 17.5652ZM29.377 22.0964H33.4592C34.1532 22.0964 34.3573 21.9127 34.3573 20.9126C34.3573 19.4226 34.1124 18.4224 33.6429 17.8713C33.2755 17.4835 32.8469 17.2998 32.1325 17.2998C31.5202 17.2998 30.9691 17.5243 30.5404 17.9734C29.9485 18.5857 29.5199 20.1778 29.377 22.0964ZM32.2141 29.6689C30.3771 29.6689 28.928 29.0974 27.887 28.0769C26.6215 26.8522 26.0704 25.1581 26.0704 23.3211C26.0704 19.4634 28.8055 16.8304 32.1121 16.8304C35.7044 16.8304 37.2761 19.3409 37.2761 21.5249C37.2761 21.8311 37.2761 22.2597 37.2148 22.5659H29.3362V23.1374C29.3362 25.4642 29.7444 27.0767 30.418 27.8319C31.0099 28.4851 31.8467 28.8117 32.806 28.8117C35.1941 28.8117 36.3372 27.138 36.827 25.403L37.2965 25.5255C36.6433 27.9136 35.0513 29.6689 32.2141 29.6689Z" fill="black"/>
<path d="M50.1771 29.4852H38.7265V25.6275H39.8695C40.3798 25.6275 40.5431 25.3418 40.5431 24.8723V15.1975C40.5431 14.728 40.3594 14.4423 39.8695 14.4423H38.7265V10.4621H48.8708V13.3401C50.0955 11.0948 52.0345 10.0539 54.7696 10.0539C58.4844 10.0539 59.8111 11.4827 60.2398 13.6871C61.3828 11.1561 63.4035 10.0539 66.2814 10.0539C70.9964 10.0539 71.8944 12.3399 71.8944 15.7486V24.8927C71.8944 25.3622 72.119 25.648 72.6905 25.648H73.6702V29.5056H62.4033V25.6275H62.8728C63.3422 25.6275 63.5463 25.3418 63.5463 24.8723V16.6058C63.5463 15.0342 63.1994 14.5443 62.0972 14.5443C60.648 14.5443 60.3826 15.7282 60.3826 17.5856V24.8315C60.3826 25.3418 60.6071 25.6275 61.0562 25.6275H61.6685V29.4852H50.8711V25.6275H51.3405C51.81 25.6275 52.0141 25.3418 52.0141 24.8723V16.6058C52.0141 15.0342 51.6671 14.5443 50.5649 14.5443C49.1157 14.5443 48.8504 15.7282 48.8504 17.5856V24.8315C48.8504 25.3418 49.0341 25.6275 49.524 25.6275H50.1363V29.4852H50.1771ZM80.2426 0.868896C82.549 0.868896 84.4268 2.76713 84.4268 5.09399C84.4268 7.38003 82.549 9.27826 80.2426 9.27826C77.9769 9.27826 76.0991 7.38003 76.0991 5.09399C76.0991 2.76713 77.9769 0.868896 80.2426 0.868896ZM76.1399 15.1771C76.1399 14.7076 75.9562 14.4219 75.4664 14.4219H74.3234V10.4417H84.4676V24.8315C84.4676 25.3418 84.6513 25.6275 85.1412 25.6275H86.223V29.4852H74.3029V25.6275H75.446C75.9562 25.6275 76.1195 25.3418 76.1195 24.8723V15.1771H76.1399ZM98.3063 29.4852H86.8557V25.6275H87.9987C88.509 25.6275 88.6723 25.3418 88.6723 24.8723V15.1975C88.6723 14.728 88.4886 14.4423 87.9987 14.4423H86.8557V10.4621H97V13.3809C98.143 11.0948 100.062 10.0743 103.185 10.0743C107.532 10.0743 108.655 12.3603 108.655 15.769V24.9132C108.655 25.3826 108.838 25.6684 109.41 25.6684H110.43V29.5261H99.0207V25.6275H99.633C100.102 25.6275 100.307 25.3418 100.307 24.8723V16.6058C100.307 15.0342 99.9188 14.5443 98.8574 14.5443C97.4082 14.5443 96.9796 15.7282 96.9796 17.5856V24.8315C96.9796 25.3418 97.1633 25.6275 97.6532 25.6275H98.2655L98.3063 29.4852ZM109.247 10.4417L111.267 10.3192L111.594 5.97167H119.289V10.4009H122.514V14.3198H119.268V22.5863C119.268 24.8315 119.697 25.5663 122.146 25.5663H122.697V29.424C121.085 29.6077 119.391 29.6689 117.778 29.6689C113.329 29.6689 111.288 28.3218 110.982 24.5049V14.3606H109.267L109.247 10.4417Z" fill="black"/>
</svg>
